<svg width="643.12" height="172.84" version="1.1" viewBox="0 0 643.12 172.84" xmlns="http://www.w3.org/2000/svg">
    <g fill-rule="evenodd">
        <path d="m216.05 43.21v-43.21c-24.807 0.0077653-48.414 10.676-64.814 29.289-16.4-18.613-40.008-29.282-64.815-29.289-47.727 0-86.42 38.691-86.42 86.419v86.42h216.05v-43.21l-29.382-43.209z" style="font-variation-settings:normal;paint-order:markers stroke fill"/>
        <path d="m216.05 43.21c-23.864 0-43.21 19.345-43.21 43.209v43.21h43.21zm-129.63-6.02e-4c23.864 0 43.21 19.345 43.21 43.21v43.21h-86.419v-43.21c0-23.864 19.345-43.21 43.21-43.21z" fill="#fc2" style="font-variation-settings:normal;paint-order:markers stroke fill"/>
    </g>
    <g>
        <g fill-rule="evenodd" stroke-width="4.2386">
            <path d="m281.74 23.665v19.411h4.3949q8.6435 0 11.72-0.51275 3.2962-0.51275 5.567-2.93 2.2707-2.2708 2.2707-6.2262 0-3.9554-2.2707-6.2996-2.2708-2.4173-5.7868-2.93-3.3695-0.51281-12.306-0.51281zm7.6914 79.55h-55.378v-24.392h8.2773v-53.106h-8.2773v-24.392h55.378q7.4716 0 13.844 0.29317 6.3726 0.21975 10.914 0.7325 4.5416 0.43952 8.3506 1.2452 10.695 2.2708 17.36 9.8889 6.7391 7.7647 6.7391 18.313 0 7.9111-4.1021 14.357-4.1021 6.3729-10.768 9.376l14.064 23.294h7.325v24.392h-36.698l-22.195-41.606h-12.526v17.214h7.6914z" dominant-baseline="middle" style="paint-order:markers stroke fill"/>
            <path d="m454.96 103.21h-97.204v-24.392h7.9112v-53.106h-8.0576v-24.392h97.35v32.595h-26.737v-8.204h-23.147v15.676h20.144v20.73h-20.144v16.701h23.147v-8.204h26.737z" dominant-baseline="middle" style="paint-order:markers stroke fill"/>
            <path d="m484.72 103.21h-22.928v-32.67h22.928q4.1021 13.331 15.456 13.331 8.204 0 8.204-6.5924 0-3.4429-2.8567-5.7134-3.0764-2.4905-12.965-6.8855-12.452-5.6403-18.313-9.7422-5.4936-3.7357-9.376-10.328-3.8824-6.5193-3.8824-14.43 0-14.21 9.2296-22.195 9.1563-7.9842 22.561-7.9842 13.405 0 22.708 7.6181v-6.2996h23.074v29.008h-22.781q-4.1752-12.013-14.797-12.013-7.4716 0-7.4716 6.3729 0 3.0764 2.1243 4.6147 2.051 1.6115 13.258 7.1052 15.016 7.4717 20.071 10.914 2.5638 1.6848 5.2008 4.7614 2.7103 3.0034 4.4683 6.2262 4.0288 7.1786 4.0288 15.529 0 12.819-9.5227 21.682-9.5224 9.0099-24.026 9.0099-13.478 0-24.392-7.9842z" dominant-baseline="middle" style="paint-order:markers stroke fill"/>
            <path d="m621.36 103.21h-57.208v-24.392h8.7901v-53.106h-11.72v18.532h-19.118v-42.924h101.01v42.924h-19.118v-18.532h-11.647v53.106h9.0099z" dominant-baseline="middle" style="paint-order:markers stroke fill"/>
        </g>
        <g stroke-width="4.2386">
            <path d="m234.05 112.72v20.143h4.7517v19.137h-4.7517v20.143h62.312v-15.501l10.799 15.501h22.924v-39.278h4.4911v-20.143h-28.605v11.787l-8.203-11.787zm32.504 20.143h5.3573v19.137h-5.3573z" color="#000000" dominant-baseline="middle" style="-inkscape-stroke:none;paint-order:markers stroke fill"/>
            <path d="m237.94 116.61v12.362h4.7517v26.917h-4.7517v12.362h29.439v-12.362h-4.7148v-26.917h4.7148v-12.362zm33.328 0v12.362h4.5302v26.917h-4.5302v12.362h21.199v-12.362h-4.5671v-18.193l21.29 30.555h17.003v-39.278h4.4934v-12.362h-20.827v12.362h4.196v13.96l-18.32-26.322z" color="#000000" dominant-baseline="middle" fill="#fc2" style="-inkscape-stroke:none;paint-order:markers stroke fill"/>
        </g>
        <g fill-rule="evenodd" stroke-width="4.2385">
            <path d="m366.11 126.07v11.016h4.4316q4.6428 0 6.7534-1.097 2.0255-1.0978 2.0255-4.263 0-2.0682-1.097-3.503-1.0553-1.3929-2.8283-1.7731-1.6878-0.3796-5.7397-0.3796zm5.9088 45.836h-34.313v-14.054h5.6981v-30.599h-5.6981v-14.054h36.002q12.409 0 18.149 2.4054 5.7405 2.4482 8.4414 6.6686 2.7014 4.2208 2.7014 9.2432 0 6.2045-3.2075 10.298-3.2079 4.1365-8.4836 5.9936-5.1913 1.8146-16.039 1.8146h-9.1586v8.2304h5.9088z" dominant-baseline="middle" style="paint-order:markers stroke fill"/>
            <path d="m459.62 171.92h-56.008v-14.055h4.5584v-30.599h-4.6426v-14.055h56.092v18.781h-15.405v-4.7272h-13.337v9.0321h11.607v11.944h-11.607v9.6233h13.337v-4.7269h15.405z" dominant-baseline="middle" style="paint-order:markers stroke fill"/>
            <path d="m492.02 128.1-5.529 16.249h10.509zm-5.529 43.81h-23.257v-14.054h4.4741l11.016-30.599h-4.7272v-14.054h42.206v14.054h-4.7271l11.227 30.599h4.3052v14.054h-30.642v-12.873h5.1488l-2.2368-7.3863h-15.026l-2.5744 7.3863h4.8115z" dominant-baseline="middle" style="paint-order:markers stroke fill"/>
            <path d="m571.27 146.04 15.236 5.3598q-1.9414 9.4118-8.9056 15.405-7.0483 6.0353-19.415 6.0353-16.883 0-24.987-8.821-8.1456-8.779-8.1456-21.44 0-12.746 7.9769-21.652 7.9769-8.9055 20.724-8.9055 10.341 0 16.84 5.1069v-3.9254h14.097v21.44h-14.646q-1.1395-4.0091-3.8408-6.3305-2.7009-2.2792-6.1619-2.2792-9.5387 0-9.5387 16.419 0 16.46 9.8764 16.46 8.6522 0 10.889-12.873z" dominant-baseline="middle" style="paint-order:markers stroke fill"/>
            <path d="m643.12 171.92h-56.008v-14.055h4.5585v-30.599h-4.6428v-14.055h56.092v18.781h-15.405v-4.7272h-13.337v9.0321h11.607v11.944h-11.607v9.6233h13.337v-4.7269h15.405z" dominant-baseline="middle" style="paint-order:markers stroke fill"/>
        </g>
    </g>
</svg>
